<svg xmlns="http://www.w3.org/2000/svg" viewBox="0 0 705.19 492.95"><defs><style>.cls-1{fill:#fefefe;fill-rule:evenodd;}</style></defs><g id="Layer_2" data-name="Layer 2"><g id="Layer_1-2" data-name="Layer 1"><g id="METAKGP"><path class="cls-1" d="M503.89,0h.95V47.23H542.1c.17,0,.24.07.24.24q.1,19-.24,38H504.84a.68.68,0,0,0,.24.71q-.1,32.18.24,64.32a30.54,30.54,0,0,0,4.86,17.33,12.3,12.3,0,0,0,5.34,4,25.81,25.81,0,0,0,13.53,1.78c2.61-.28,5.22-.47,7.83-.59a15.5,15.5,0,0,0,3.56-.71h.24v.94q.32,19.34.24,38.69a52.82,52.82,0,0,0-6.65,1.9,152.4,152.4,0,0,1-37.5,1.78,59.85,59.85,0,0,1-24.92-10.44,35,35,0,0,1-4.27-4.16,54.59,54.59,0,0,1-10.21-19.93,155.31,155.31,0,0,1-3.32-24.69V95.89c-.07-3.49,0-7,.24-10.44q-10.86-.36-21.84-.24v-38h21.84a21.69,21.69,0,0,0-.24-4.51V42q-.1-15.31.24-30.62,16.59-4.1,33.22-7.83c3.61-.66,7.17-1.47,10.69-2.37C500.07.74,502,.33,503.89,0Z"/><path class="cls-1" d="M111.79,45.57c2,.52,4,1.07,5.94,1.66a45.89,45.89,0,0,1,24.8,21.6,13,13,0,0,1,1.3,3.09.74.74,0,0,0,.72.23,8.5,8.5,0,0,1,.83-1.89,79.11,79.11,0,0,1,20.53-18.64,84,84,0,0,1,9.49-4.39,14.52,14.52,0,0,1,3.32-.95A95.4,95.4,0,0,1,193,44.15a71.85,71.85,0,0,1,20.65,2.13,65.76,65.76,0,0,1,11.4,5,53.27,53.27,0,0,1,18.63,20.17c1.26,2.76,2.47,5.53,3.68,8.31a110.83,110.83,0,0,1,3.32,13,11.18,11.18,0,0,0,.71,3.33,17,17,0,0,0,.24,2.37,9.85,9.85,0,0,0,.47,3.32,39.4,39.4,0,0,1,.48,7.12V212.43H202.46c-.17-.48-.31-1-.48-1.43V137a161.58,161.58,0,0,0,0-17.33v-1a98.58,98.58,0,0,0-1.06-11.86c-.46-1.64-.95-3.21-1.55-4.75a11.57,11.57,0,0,0-1.18-2.85,24.12,24.12,0,0,0-4-6.64A19.16,19.16,0,0,0,182.05,86,63.91,63.91,0,0,0,174,86a11,11,0,0,0-3.56,1.07,21,21,0,0,0-9.26,6.41,15.41,15.41,0,0,0-4,5.45,16.1,16.1,0,0,0-2.13,4,31.73,31.73,0,0,0-1.19,4.75,22.26,22.26,0,0,0-.71,6.88v98H102.53c-.11-1.82-.19-3.63-.23-5.45q.06-46.54-.12-93.05A40.34,40.34,0,0,0,97,95.89q-6.45-10.4-18.75-10a21.4,21.4,0,0,0-14.6,4.87A33.76,33.76,0,0,0,53.05,107a30,30,0,0,0-.6,4.51,22.59,22.59,0,0,0-.23,4.51V211a2.91,2.91,0,0,1-.24,1.55q-18.51.16-37,.11H1.42q.12-5.86-.23-11.63.1-59.1-.24-118.2C1,78.54,1,74.27.71,70q0-9.15-.71-18.28V47.47H43.67a.5.5,0,0,1,.36.24Q44.84,58.88,46.28,70a.74.74,0,0,0,.72-.24A59.25,59.25,0,0,1,73.1,48.42a50.2,50.2,0,0,1,6.41-2.14,10.21,10.21,0,0,0,2.14-.47A76.27,76.27,0,0,1,111.79,45.57Z"/><path class="cls-1" d="M425.8,100.4a2.74,2.74,0,0,1-.47-1.66,71.18,71.18,0,0,0-5.7-16.38c-1.71-3-3.49-6-5.34-9a69.35,69.35,0,0,0-20.53-19.7A72.63,72.63,0,0,0,385,49.37c-1.26-.52-2.54-1-3.8-1.43a82.72,82.72,0,0,0-22.07-3.79,104,104,0,0,0-26.58,2.25q-3.11.83-6.18,1.78a64.83,64.83,0,0,0-20.88,10.45,21.1,21.1,0,0,1-3.32,2.61c-3,2.68-5.91,5.43-8.79,8.3-1.59,2-3.18,4-4.74,5.94A90.88,90.88,0,0,0,272,117.25a11.73,11.73,0,0,1-.47,3.56,12.63,12.63,0,0,0-.36,2.37c-.12,4.44-.17,8.86-.12,13.3v1.42a34.43,34.43,0,0,1,.48,5.7,64.6,64.6,0,0,0,1.07,8.07,108.64,108.64,0,0,0,6.28,20.65c1.43,2.82,3,5.6,4.63,8.3a74.53,74.53,0,0,0,19.82,20.65q5.52,3.42,11.39,6.29A108.83,108.83,0,0,0,350.56,216q14.85.24,29.67-.71a215.42,215.42,0,0,0,33.23-7.13,9.12,9.12,0,0,1,3.09-.94,18.64,18.64,0,0,1,2.61-1.19,8.17,8.17,0,0,0,.24-1.31,12.2,12.2,0,0,1-.72-4.15q-2.13-10.29-4.15-20.65c-.57-3.16-1-6.31-1.31-9.49a156.24,156.24,0,0,1-22.78,5.22c-2.09.43-4.23.78-6.41,1.07-3.32.19-6.65.38-10,.59-2.09.17-4.22.24-6.41.24a67.36,67.36,0,0,1-9-.48,16.8,16.8,0,0,1-4.27-.47c-2.78-.67-5.53-1.36-8.31-2a32.68,32.68,0,0,1-6.88-2.73,49.74,49.74,0,0,1-7.83-4.63,20.12,20.12,0,0,1-4-4.15,22.7,22.7,0,0,1-5.22-8.78,57.88,57.88,0,0,1-1.9-7.12.71.71,0,0,1-.23-.72H427a.52.52,0,0,0,.36-.23q.81-7.69,1.3-15.43A114,114,0,0,0,425.8,100.4Zm-45.33,10.92H320a2.94,2.94,0,0,1,.23-1.66,41.23,41.23,0,0,1,12.58-24.57,32,32,0,0,1,7.12-4.15,17.48,17.48,0,0,1,7.6-2.14,15.53,15.53,0,0,1,4.39-.47,27.47,27.47,0,0,1,17,5.45,30,30,0,0,1,10.09,16.14,45.37,45.37,0,0,1,1.07,5.46A32,32,0,0,1,380.47,111.32Z"/><path class="cls-1" d="M696.26,206.73q-.63-6.37-.71-12.82a4.86,4.86,0,0,1-.36-1.42q-.32-42-.23-84a28.31,28.31,0,0,0-.24-3.8q-.57-4.59-1.42-9.26a128.69,128.69,0,0,0-5.23-16.85c-1.09-2.09-2.23-4.13-3.44-6.17A50.51,50.51,0,0,0,670.27,57a62.16,62.16,0,0,0-15.66-8.07A99.34,99.34,0,0,0,634,44.62h-.24l-8.31-.24c-4.74,0-9.49.08-14.24.24-1.73,0-3.49.12-5.22.24a10.57,10.57,0,0,1-3.56.47,83,83,0,0,0-12.58,1.9c-4.22.93-8.4,2-12.58,3.09a118,118,0,0,0-18.75,7.47,1.25,1.25,0,0,0-.71,1.07q4.41,16.45,9.26,32.76a16.36,16.36,0,0,1,4.74-2.38,81,81,0,0,1,24.92-8.07,28.2,28.2,0,0,1,5.94-1,14.15,14.15,0,0,1,4.27-.47,49.11,49.11,0,0,1,27.53,4.63,21.38,21.38,0,0,1,6.29,6.76,13.11,13.11,0,0,1,1.78,8.55,4.85,4.85,0,0,1,.24,2.13h-3.56c-4.63.26-9.3.41-14,.48a47.07,47.07,0,0,0-6.41.47,9.64,9.64,0,0,1-3.32.48,106.85,106.85,0,0,0-42.25,13.17Q544,134.64,545.9,169.23c.38,2,.69,4.06,1,6.17a55.2,55.2,0,0,0,4.27,12.82,44.32,44.32,0,0,0,3.8,6.41c1.09,1.61,2.23,3.2,3.44,4.74a54.84,54.84,0,0,0,23.14,14.48c2.43.5,4.8,1.05,7.13,1.66A162.29,162.29,0,0,0,605,216a34.73,34.73,0,0,1,4.75-.48c2.63-.66,5.32-1.23,8.07-1.66a55.36,55.36,0,0,0,28.72-17.68.79.79,0,0,1,1.07-.12c.83,5.51,1.8,11,3,16.38q23.25.34,46.52.23a1.41,1.41,0,0,0,.24-.83A26.9,26.9,0,0,1,696.26,206.73Zm-56-39.64a43.89,43.89,0,0,0-3.56,4.28A32.81,32.81,0,0,1,634,173.5a27,27,0,0,1-18.51,6.05,38.15,38.15,0,0,1-7.36-1.42,6.14,6.14,0,0,1-1.43-.83,16.11,16.11,0,0,1-8.78-10.44.53.53,0,0,1-.35-.24c-.27-1.35-.55-2.71-.84-4a11.21,11.21,0,0,1-.23-2.37,14.84,14.84,0,0,1,.47-4,17.35,17.35,0,0,1,1.9-5.7,26.29,26.29,0,0,1,2.73-4.51,31.6,31.6,0,0,1,15.31-8.55,35.35,35.35,0,0,1,10.92-2.13,9.61,9.61,0,0,0,3.32-.48h.48c2.18-.23,4.39-.38,6.64-.47h6.17q.11,9.18-.24,18.28A22.91,22.91,0,0,1,640.25,167.09Z"/><path class="cls-1" d="M458.8,236.4v68.36h-2.62q-30.18-3.08-60.52-4.28a257.17,257.17,0,0,0-39.64.12,40.72,40.72,0,0,0-19.93,6.89,20,20,0,0,0-4.63,8.18,64.72,64.72,0,0,0-1.9,9.74q-.36,6.75-.83,13.52a113,113,0,0,0-.48,13.3,83.83,83.83,0,0,0,0,11.86c0,3,0,6,.12,9a12.74,12.74,0,0,0,.36,2.38,113.34,113.34,0,0,0,3,20.17,74.82,74.82,0,0,0,3.8,9.73,19,19,0,0,0,3.44,4.51,22.09,22.09,0,0,0,13.77,7.48,61.47,61.47,0,0,0,21.84.59c1,.26,1.52-.14,1.42-1.19V399.46c-3.73-.17-7.5-.31-11.27-.48q-.65-31.78-.6-63.61a21.66,21.66,0,0,0,4.51-.23h88.3a15.32,15.32,0,0,0,3.79.23V481.58c-3.51.48-7,1.05-10.44,1.66q-14,2.17-28,4a12.48,12.48,0,0,0-3.79.47q-27.78,3.81-55.78,5.1a247.14,247.14,0,0,1-39.16-2,9.67,9.67,0,0,0-3.33-.48,122.22,122.22,0,0,1-33.7-9.61l-8.78-4.87A130.09,130.09,0,0,1,267,467.34a98.35,98.35,0,0,1-21.25-34.89c-1.54-4.75-2.91-9.49-4.15-14.24-.9-4.51-1.71-9-2.37-13.53-.64-6.05-1.26-12.06-1.9-18,0-2.23-.07-4.44-.24-6.64a61.3,61.3,0,0,0-.47-7.6V343.21q.75-9.54,1.42-19.23a23.63,23.63,0,0,0,.48-2.37,27.13,27.13,0,0,0,.71-5.22,129.23,129.23,0,0,1,15.31-49.61,73.74,73.74,0,0,1,30-29.08,131.37,131.37,0,0,1,40.11-12.34,271,271,0,0,1,38-2.37,507.39,507.39,0,0,1,76.66,8.78Q449.13,234,458.8,236.4Z"/><path class="cls-1" d="M4.51,228.09H94.23a1.12,1.12,0,0,1,1,.24v92.33c5,.07,10,0,14.95-.24a1.4,1.4,0,0,0,.47-.95q3.81-11.57,7.36-23.26,6.66-20.58,13.06-41.3,4.09-13.42,8.54-26.7a1,1,0,0,1,.71-.12h86.16a16,16,0,0,1,2.85.12,1,1,0,0,1,.24.48q-8.24,24.56-16.38,49.25-4.84,14-9.26,28.24a78.39,78.39,0,0,0-3.79,11.16q-3,8.3-5.46,16.85c-2.42,6.71-4.63,13.53-6.65,20.41q5.24,16.62,11.16,33Q205.44,406.93,212,426q3,8.11,5.7,16.38,4.51,13.2,9,26.34,3.45,10.23,6.88,20.42-45.57.06-91.14-.12-2.28-5.1-4-10.33-5.06-14.84-10.68-29.43a109.83,109.83,0,0,0-3.79-10.68,14.77,14.77,0,0,0-1.43-4q-3.42-10.33-7.36-20.42c-1.25-3.7-2.61-7.33-4-10.91a1.06,1.06,0,0,0-.24-.84c-5.22-.11-10.44-.16-15.66-.11v86.63a1.71,1.71,0,0,1-1.19.24H4.51Q4.3,467.75,4,446.45V228.33C4.2,228.26,4.34,228.16,4.51,228.09Z"/><path class="cls-1" d="M704.93,321.61a1.07,1.07,0,0,1-.48-1.07,77,77,0,0,0-.71-13.65,15.59,15.59,0,0,1-.71-5,30.17,30.17,0,0,0-.36-4q-1.21-4.87-2.49-9.73a1.72,1.72,0,0,1-.48-1.42c-.19-1-.4-2-.59-3.09q-2.31-6.3-5-12.34a61.9,61.9,0,0,0-29.79-29.43q-6-2.56-12.11-5-6-1.81-12.1-3.32-5.21-1.22-10.44-2.13a182.24,182.24,0,0,0-18.52-2.14c-2.54-.14-5-.31-7.59-.48a16.75,16.75,0,0,1-4.27-.47H483.48v104.2q-.08,78.32.12,156.65,45.49.42,91,0V433.87h19.7q8.91-.11,17.8-.71a12.54,12.54,0,0,1,3.8-.47,228.7,228.7,0,0,0,27.06-5,133.59,133.59,0,0,0,21.36-8.19,69.26,69.26,0,0,0,22.43-18.15,90.09,90.09,0,0,0,13.29-28.72c.71-3.42,1.52-6.81,2.37-10.21.74-4.94,1.4-9.82,2-14.71,0-3.14.19-6.22.48-9.26a1.7,1.7,0,0,0,.23-1.19Q705.27,329.44,704.93,321.61Zm-91.5,13.76a37.33,37.33,0,0,1-.83,4.75,36,36,0,0,1-2.85,9.49,18.17,18.17,0,0,1-7.83,8.67,42.62,42.62,0,0,1-14.48,3.91c-4.23.24-8.5.31-12.82.24q-.11-31.26.24-62.42a88.48,88.48,0,0,1,12.82,0A36.15,36.15,0,0,1,605,304.64a21,21,0,0,1,7.36,13.17,10.68,10.68,0,0,1,.83,3.8A121.44,121.44,0,0,1,613.43,335.37Z"/></g></g></g></svg>